<?xml version="1.0" encoding="UTF-8"?>
<svg version="1.1" xmlns="http://www.w3.org/2000/svg" width="438" height="418">
<path d="M0 0 C1.58158559 0.64049465 3.16416109 1.27854865 4.74755859 1.91455078 C6.00726471 2.4229953 6.00726471 2.4229953 7.29241943 2.94171143 C12.0604815 4.8284254 16.87871365 6.57770323 21.6953125 8.3359375 C22.71801239 8.71046051 23.74071228 9.08498352 24.79440308 9.47085571 C27.9522087 10.62666891 31.11077491 11.78038156 34.26953125 12.93359375 C47.18564673 17.65115724 60.08659242 22.39740764 72.92858887 27.31367493 C79.02040669 29.64497017 85.12998937 31.91816883 91.26953125 34.12109375 C97.85649336 36.49095129 104.42087107 38.91448622 110.97309875 41.37886047 C117.4706768 43.8196992 123.97876987 46.23181589 130.48828125 48.640625 C131.61634689 49.05809998 132.74441254 49.47557495 133.90666199 49.90570068 C138.58896851 51.63820481 143.27147221 53.37017527 147.95410156 55.10180664 C154.83340397 57.6460673 161.71160829 60.19325386 168.58789062 62.7456665 C170.84284507 63.58257324 173.09805559 64.41879029 175.35351562 65.2543335 C178.60790178 66.46080903 181.86078264 67.67125898 185.11328125 68.8828125 C186.07641235 69.23922318 187.03954346 69.59563385 188.03186035 69.96284485 C193.77238944 72.10698382 199.38987585 74.43474208 204.95703125 76.99609375 C204.95703125 77.98609375 204.95703125 78.97609375 204.95703125 79.99609375 C201.35376336 81.41505365 197.74925054 82.8308255 194.14453125 84.24609375 C193.13970703 84.64183594 192.13488281 85.03757812 191.09960938 85.4453125 C190.09736328 85.83847656 189.09511719 86.23164062 188.0625 86.63671875 C187.15653076 86.99282227 186.25056152 87.34892578 185.31713867 87.71582031 C180.55075383 89.53191579 175.75392836 91.26247912 170.95703125 92.99609375 C170.77124212 101.34991681 170.62931397 109.70286973 170.54253387 118.05825138 C170.50087146 121.93858635 170.44441785 125.8175029 170.35351562 129.69702148 C170.26625361 133.44486234 170.21868986 137.19134393 170.19801331 140.9401226 C170.18328992 142.36638217 170.1545352 143.79257155 170.1111908 145.21824837 C169.65631762 153.23997689 169.65631762 153.23997689 172.72094727 160.33322144 C174.81296842 162.19687962 174.81296842 162.19687962 177.03918457 163.59812927 C179.24796396 165.20816159 179.98380616 166.46703409 180.95703125 168.99609375 C181.68108995 175.22111793 181.54959554 180.67377628 177.95703125 185.99609375 C177.42489014 186.44919922 176.89274902 186.90230469 176.34448242 187.36914062 C174.7668113 188.90208109 174.7668113 188.90208109 174.77075195 191.04492188 C175.98294427 201.09021239 177.78661549 211.04104145 179.59936523 220.99316406 C180.03540641 223.39861447 180.45630442 225.80632262 180.875 228.21484375 C181.01342819 228.95230835 181.15185638 229.68977295 181.29447937 230.44958496 C182.18402561 235.65560221 182.18402561 235.65560221 179.95703125 238.99609375 C177.33240881 239.26307263 174.94637192 239.34442359 172.32421875 239.2890625 C171.57238312 239.28481766 170.82054749 239.28057281 170.04592896 239.27619934 C167.6409344 239.25938545 165.23677316 239.22172999 162.83203125 239.18359375 C161.20313709 239.16855034 159.57422981 239.15486133 157.9453125 239.14257812 C153.94889691 239.10947329 149.95310543 239.05767384 145.95703125 238.99609375 C145.49199156 230.22960094 147.24910478 221.93068279 148.89453125 213.37109375 C149.31411878 211.15006096 149.73140736 208.92861132 150.14759827 206.7069397 C150.52540275 204.69630427 150.908893 202.68673964 151.29272461 200.67724609 C152.97113754 194.02844562 152.97113754 194.02844562 151.77734375 187.66796875 C151.21789062 187.03375 150.6584375 186.39953125 150.08203125 185.74609375 C146.58990049 181.68547659 145.59517974 178.6583274 145.67578125 173.1875 C146.34622615 167.96361685 148.82700655 164.07230775 152.58203125 160.49609375 C154.95703125 158.99609375 154.95703125 158.99609375 156.95703125 158.99609375 C156.95703125 138.86609375 156.95703125 118.73609375 156.95703125 97.99609375 C144.886761 102.65962266 144.886761 102.65962266 132.81860352 107.32861328 C123.53067665 110.91473466 114.21111713 114.36796463 104.81030273 117.64648438 C99.2492442 119.5865344 93.7275013 121.63135998 88.20703125 123.68359375 C87.08304932 124.1000415 85.95906738 124.51648926 84.80102539 124.94555664 C78.56468181 127.26210927 72.33943594 129.60592152 66.125 131.98046875 C65.47675262 132.22783279 64.82850525 132.47519684 64.16061401 132.73005676 C61.03060866 133.92478208 57.90227431 135.12342158 54.77636719 136.32885742 C49.78066771 138.24062149 44.82377671 140.08950546 39.6796875 141.5625 C36.64221662 142.43868184 33.82133699 143.43799314 30.953125 144.765625 C23.50530014 148.2085029 15.71650075 150.85802543 8.01953125 153.68359375 C5.60367612 154.57273426 3.18814005 155.46272523 0.77305603 156.35395813 C-0.72110161 156.90511487 -2.21574428 157.45495891 -3.71092224 158.00334167 C-7.43420582 159.36411105 -7.43420582 159.36411105 -11.04296875 160.99609375 C-17.3039796 160.95009231 -22.80792464 159.27083482 -28.55078125 156.94140625 C-29.32050262 156.63919159 -30.090224 156.33697693 -30.88327026 156.02560425 C-33.31568717 155.06763934 -35.74173114 154.09458713 -38.16796875 153.12109375 C-39.80169506 152.47557895 -41.4358071 151.83103952 -43.0703125 151.1875 C-54.78368834 146.56071134 -54.78368834 146.56071134 -59.43310547 144.47607422 C-63.07695684 142.98215923 -66.70743239 141.87157195 -70.48336792 140.77331543 C-74.53613331 139.54269498 -78.47045271 138.03189709 -82.421875 136.51171875 C-83.29467102 136.17955353 -84.16746704 135.84738831 -85.06671143 135.50515747 C-86.93917281 134.7924704 -88.81109778 134.07837266 -90.68252563 133.36297607 C-95.72122215 131.43764573 -100.76465586 129.52483107 -105.80859375 127.61328125 C-106.83672684 127.22359161 -107.86485992 126.83390198 -108.92414856 126.43240356 C-118.87352788 122.66874855 -128.85907583 119.00766901 -138.85546875 115.37109375 C-156.74181009 108.86015709 -174.57292301 102.2088517 -192.38621521 95.50086975 C-197.09898616 93.7263038 -201.81394321 91.95778737 -206.53125 90.1953125 C-207.63009521 89.78458496 -208.72894043 89.37385742 -209.86108398 88.95068359 C-211.79650715 88.22758563 -213.7321851 87.50516896 -215.66821289 86.78369141 C-221.4941162 84.60433696 -227.27680639 82.32884538 -233.04296875 79.99609375 C-232.87602234 78.14552307 -232.87602234 78.14552307 -232.04296875 75.99609375 C-229.77082825 74.71592712 -229.77082825 74.71592712 -226.71411133 73.60522461 C-224.99754082 72.96821877 -224.99754082 72.96821877 -223.24629211 72.31834412 C-221.97680228 71.86557362 -220.7072015 71.41311408 -219.4375 70.9609375 C-218.12023163 70.4787348 -216.80348292 69.99511041 -215.48722839 69.51014709 C-211.99055798 68.22616428 -208.48720505 66.96147372 -204.9821167 65.70068359 C-201.54066094 64.45933767 -198.1055112 63.20082977 -194.66992188 61.94335938 C-189.2035612 59.94497633 -183.73368036 57.95655534 -178.26098633 55.97558594 C-170.11831469 53.02755807 -161.98554285 50.05288116 -153.85546875 47.0703125 C-152.66730057 46.63476547 -151.47913239 46.19921844 -150.25495911 45.75047302 C-142.23969693 42.80971772 -134.23333131 39.84541003 -126.23046875 36.87109375 C-116.38427117 33.21383919 -106.51620131 29.62413465 -96.61206055 26.12646484 C-91.93341006 24.46013968 -87.32159355 22.71655824 -82.75390625 20.765625 C-73.01241836 16.65160495 -63.03098416 13.13599782 -53.10546875 9.49609375 C-50.0456331 8.37203299 -46.9860769 7.24722772 -43.92709351 6.12084961 C-41.96030636 5.39767676 -39.99256536 4.67709228 -38.02383423 3.95922852 C-33.99026754 2.48320489 -29.97562937 0.99862502 -26.02294922 -0.68359375 C-24.36030029 -1.38355469 -24.36030029 -1.38355469 -22.6640625 -2.09765625 C-21.32299438 -2.69610352 -21.32299438 -2.69610352 -19.95483398 -3.30664062 C-12.93581668 -4.98739131 -6.45072802 -2.72286617 0 0 Z " fill="#55A298" transform="translate(233.04296875,4.00390625)"/>
<path d="M0 0 C0.78455566 0.05003174 1.56911133 0.10006348 2.37744141 0.15161133 C45.5412456 3.3794768 84.88187727 20.25789358 118.703125 46.84375 C121.32812041 48.93841673 121.32812041 48.93841673 124.3125 50.875 C125.4571875 49.9159375 125.4571875 49.9159375 126.625 48.9375 C129.3125 46.875 129.3125 46.875 132.3125 45.875 C133.04726562 45.13378906 133.78203125 44.39257812 134.5390625 43.62890625 C137.6828719 40.50723635 140.98764164 38.21592205 144.6875 35.8125 C145.32171875 35.39162109 145.9559375 34.97074219 146.609375 34.53710938 C159.54962976 26.02030905 173.73284973 18.13938162 188.3125 12.875 C189.1072876 12.57013672 189.9020752 12.26527344 190.72094727 11.95117188 C197.628983 9.33637216 204.56126915 7.42427003 211.75 5.75 C212.79220703 5.49863281 213.83441406 5.24726563 214.90820312 4.98828125 C229.0473663 1.63976275 243.71603723 -1.04064527 258.3125 -0.125 C261.34419145 2.90669145 259.61829181 12.05911863 259.63092041 16.41891479 C259.59650338 62.95693438 241.42520829 109.07057279 208.73681641 142.41992188 C207.22003259 143.96946447 205.72576473 145.53910466 204.23046875 147.109375 C185.51245695 166.5383058 152.57539397 193.46034748 125.0546875 196.19921875 C120.34987894 195.79159964 116.72324387 194.34031197 112.4375 192.4375 C111.60742432 192.07624023 110.77734863 191.71498047 109.92211914 191.34277344 C94.75213215 184.6300578 80.84102716 176.46476117 67.3125 166.875 C66.70873535 166.45057617 66.1049707 166.02615234 65.48291016 165.58886719 C48.32393117 153.3541093 32.8933548 137.46891238 21.3125 119.875 C20.81314941 119.11783691 20.31379883 118.36067383 19.79931641 117.58056641 C-0.27323487 86.65866618 -10.77195047 51.20977094 -10.9375 14.375 C-10.9684375 12.60769531 -10.9684375 12.60769531 -11 10.8046875 C-11.00515625 9.68320313 -11.0103125 8.56171875 -11.015625 7.40625 C-11.0249707 6.39111328 -11.03431641 5.37597656 -11.04394531 4.33007812 C-10.92631836 3.51990234 -10.80869141 2.70972656 -10.6875 1.875 C-6.94640574 -0.61906284 -4.29712381 -0.28650608 0 0 Z " fill="#55A298" transform="translate(94.6875,222.125)"/>
<path d="M0 0 C0 54.45 0 108.9 0 165 C-6.03053316 163.19084005 -11.69728698 161.45137476 -17.51171875 159.1875 C-18.16904495 158.93250732 -18.82637115 158.67751465 -19.50361633 158.41479492 C-20.87460778 157.88215975 -22.24490297 157.347729 -23.61450195 156.81152344 C-25.6926501 155.99798387 -27.7728657 155.18992955 -29.85351562 154.3828125 C-40.22406091 150.34788003 -40.22406091 150.34788003 -44.31958008 148.51171875 C-47.9889032 147.00455797 -51.6375489 145.88330654 -55.44039917 144.77722168 C-59.49316456 143.54660123 -63.42748396 142.03580334 -67.37890625 140.515625 C-68.25170227 140.18345978 -69.12449829 139.85129456 -70.02374268 139.50906372 C-71.89620406 138.79637665 -73.76812903 138.08227891 -75.63955688 137.36688232 C-80.6782534 135.44155198 -85.72168711 133.52873732 -90.765625 131.6171875 C-91.79375809 131.22749786 -92.82189117 130.83780823 -93.88117981 130.43630981 C-103.83055913 126.6726548 -113.81610708 123.01157526 -123.8125 119.375 C-141.69884134 112.86406334 -159.52995426 106.21275795 -177.34324646 99.504776 C-182.05601741 97.73021005 -186.77097446 95.96169362 -191.48828125 94.19921875 C-192.58712646 93.78849121 -193.68597168 93.37776367 -194.81811523 92.95458984 C-196.7535384 92.23149188 -198.68921635 91.50907521 -200.62524414 90.78759766 C-206.45114745 88.60824321 -212.23383764 86.33275163 -218 84 C-217.83305359 82.14942932 -217.83305359 82.14942932 -217 80 C-214.7278595 78.71983337 -214.7278595 78.71983337 -211.67114258 77.60913086 C-209.95457207 76.97212502 -209.95457207 76.97212502 -208.20332336 76.32225037 C-206.93383353 75.86947987 -205.66423275 75.41702033 -204.39453125 74.96484375 C-203.07726288 74.48264105 -201.76051417 73.99901666 -200.44425964 73.51405334 C-196.94758923 72.23007053 -193.4442363 70.96537997 -189.93914795 69.70458984 C-186.49769219 68.46324392 -183.06254245 67.20473602 -179.62695312 65.94726562 C-174.16059245 63.94888258 -168.69071161 61.96046159 -163.21801758 59.97949219 C-155.07534594 57.03146432 -146.9425741 54.05678741 -138.8125 51.07421875 C-137.62433182 50.63867172 -136.43616364 50.20312469 -135.21199036 49.75437927 C-127.19672818 46.81362397 -119.19036256 43.84931628 -111.1875 40.875 C-101.34130242 37.21774544 -91.47323256 33.6280409 -81.5690918 30.13037109 C-76.89044131 28.46404593 -72.2786248 26.72046449 -67.7109375 24.76953125 C-57.96944961 20.6555112 -47.98801541 17.13990407 -38.0625 13.5 C-34.01123563 12.01172814 -29.96059897 10.52175636 -25.91015625 9.03125 C-24.94856598 8.67804687 -23.98697571 8.32484375 -22.99624634 7.9609375 C-16.70955135 5.64680827 -10.45444481 3.2679034 -4.22827148 0.79492188 C-2 0 -2 0 0 0 Z " fill="#67B7A9" transform="translate(218,0)"/>
<path d="M0 0 C0.78455566 0.05003174 1.56911133 0.10006348 2.37744141 0.15161133 C44.82715916 3.32607616 92.59481513 20.15731513 123.3125 50.875 C123.55859566 53.3856144 123.55859566 53.3856144 123.55300903 56.62026978 C123.55713303 58.45447227 123.55713303 58.45447227 123.56134033 60.32572937 C123.5542616 61.68801977 123.54699197 63.05030919 123.53955078 64.41259766 C123.53898688 65.84144584 123.53930282 67.27029461 123.54043579 68.69914246 C123.54101112 72.58531417 123.52922775 76.47136316 123.51528788 80.35750628 C123.50281048 84.41609613 123.50161239 88.4746886 123.49923706 92.53329468 C123.49301347 100.22206179 123.47659081 107.91077224 123.45653808 115.59951437 C123.43420637 124.35150235 123.42319253 133.103493 123.41314721 141.85550237 C123.39222531 159.86203374 123.35703232 177.86851232 123.3125 195.875 C121.70230688 195.39825712 120.09260258 194.91986302 118.48310852 194.44076538 C117.13842483 194.04142068 117.13842483 194.04142068 115.76657581 193.63400841 C111.48720555 192.31046413 107.53034168 190.43593128 103.5 188.5 C102.15518555 187.85514648 102.15518555 187.85514648 100.78320312 187.19726562 C81.51248368 177.72976931 63.87051121 165.67299342 48.3125 150.875 C47.75304687 150.3480957 47.19359375 149.82119141 46.6171875 149.27832031 C12.69924184 117.14647924 -8.98236631 71.67248104 -10.81176758 24.68310547 C-10.89143282 21.24640103 -10.9220503 17.81255926 -10.9375 14.375 C-10.9684375 12.60769531 -10.9684375 12.60769531 -11 10.8046875 C-11.00515625 9.68320313 -11.0103125 8.56171875 -11.015625 7.40625 C-11.0249707 6.39111328 -11.03431641 5.37597656 -11.04394531 4.33007812 C-10.92631836 3.51990234 -10.80869141 2.70972656 -10.6875 1.875 C-6.94640574 -0.61906284 -4.29712381 -0.28650608 0 0 Z " fill="#67B7A9" transform="translate(94.6875,222.125)"/>
<path d="M0 0 C6.58866045 0.5393468 12.15332029 2.2696166 18.31640625 4.60546875 C19.77759132 5.14800041 19.77759132 5.14800041 21.26829529 5.70149231 C24.3694368 6.85544327 27.4658838 8.02146783 30.5625 9.1875 C32.61495447 9.95192383 34.66768669 10.71560236 36.72070312 11.47851562 C45.30294839 14.67674569 53.8682615 17.90608398 62.359375 21.33984375 C67.75388474 23.52120772 73.17371702 25.51971851 78.6875 27.375 C85.54349209 29.72562586 92.28903223 32.26341208 99 35 C105.88016476 37.80156936 112.79913125 40.42473349 119.8125 42.875 C120.63041016 43.16117188 121.44832031 43.44734375 122.29101562 43.7421875 C123.82586087 44.27205939 125.36492028 44.78992291 126.90844727 45.29394531 C128.78323629 45.92682612 130.62198165 46.66420516 132.453125 47.4140625 C137.63603353 48.27026986 141.19579044 46.52163191 145.9375 44.5 C147.65451352 43.80101531 149.37197611 43.10313292 151.08984375 42.40625 C152.01740479 42.0244458 152.94496582 41.6426416 153.90063477 41.24926758 C165.83217364 36.43999744 177.98652802 32.16661227 190.07260132 27.76516724 C203.30810116 22.94317274 216.52601487 18.08323981 229.6875 13.0625 C247.52141037 6.27243894 247.52141037 6.27243894 255.5 3.3125 C256.39678467 2.9729126 257.29356934 2.6333252 258.2175293 2.28344727 C259.04293213 1.97979248 259.86833496 1.6761377 260.71875 1.36328125 C261.42966797 1.09813721 262.14058594 0.83299316 262.87304688 0.55981445 C265 0 265 0 270 0 C270 22.77 270 45.54 270 69 C262.15488034 70.12073138 262.15488034 70.12073138 258.1796875 70.46484375 C257.32149414 70.54138184 256.46330078 70.61791992 255.57910156 70.69677734 C254.68674805 70.77621582 253.79439453 70.8556543 252.875 70.9375 C225.45515366 73.49775835 199.83402142 80.31464065 174.91308594 92.09619141 C173.24330379 92.8850548 171.56381341 93.65330292 169.8828125 94.41796875 C159.53394104 99.30573214 148.90789385 105.51096768 139.92822266 112.64624023 C137.16630855 114.58531516 135.30113124 114.40091258 132 114 C129.7890625 112.8203125 129.7890625 112.8203125 127.625 111.125 C92.28622247 85.06658393 48.31003198 71.36459344 4.59375 70.17578125 C1 70 1 70 0 69 C-0.09425595 66.85256451 -0.11742648 64.70198974 -0.11352539 62.55249023 C-0.11367142 61.87934784 -0.11381744 61.20620544 -0.1139679 60.51266479 C-0.11326878 58.27794216 -0.10547652 56.0433019 -0.09765625 53.80859375 C-0.09579206 52.26302638 -0.09436816 50.71745843 -0.09336853 49.17189026 C-0.0895434 45.09642923 -0.07971317 41.02100363 -0.06866455 36.94555664 C-0.05845032 32.78988118 -0.05387089 28.63420001 -0.04882812 24.47851562 C-0.03809089 16.31899413 -0.02101454 8.15950147 0 0 Z " fill="#55A298" transform="translate(84,133)"/>
<path d="M0 0 C6.58866045 0.5393468 12.15332029 2.2696166 18.31640625 4.60546875 C19.77759132 5.14800041 19.77759132 5.14800041 21.26829529 5.70149231 C24.3694368 6.85544327 27.4658838 8.02146783 30.5625 9.1875 C32.61495447 9.95192383 34.66768669 10.71560236 36.72070312 11.47851562 C45.30294839 14.67674569 53.8682615 17.90608398 62.359375 21.33984375 C67.75388474 23.52120772 73.17371702 25.51971851 78.6875 27.375 C86.38603994 30.01449941 93.93143183 32.93242566 101.46582031 36.00585938 C109.84258903 39.3962202 118.35654628 42.35822722 126.91381836 45.25732422 C129.29993809 46.10677726 131.64834287 47.05933715 134 48 C134 69.78 134 91.56 134 114 C130.08577234 112.43430893 127.76430771 111.27851424 124.5 108.875 C89.77105146 84.24994146 46.98653608 71.32860254 4.59375 70.17578125 C1 70 1 70 0 69 C-0.09425595 66.85256451 -0.11742648 64.70198974 -0.11352539 62.55249023 C-0.11367142 61.87934784 -0.11381744 61.20620544 -0.1139679 60.51266479 C-0.11326878 58.27794216 -0.10547652 56.0433019 -0.09765625 53.80859375 C-0.09579206 52.26302638 -0.09436816 50.71745843 -0.09336853 49.17189026 C-0.0895434 45.09642923 -0.07971317 41.02100363 -0.06866455 36.94555664 C-0.05845032 32.78988118 -0.05387089 28.63420001 -0.04882812 24.47851562 C-0.03809089 16.31899413 -0.02101454 8.15950147 0 0 Z " fill="#67B7A9" transform="translate(84,133)"/>
</svg>
